<svg id="Capa_1" enable-background="new 0 0 505.998 505.998" height="512" viewBox="0 0 505.998 505.998" width="512" xmlns="http://www.w3.org/2000/svg"><g><g><path d="m489.178 247.536c-8.33-10.143-19.117-17.75-31.093-22.069 3.58-11.702 5.687-23.1 5.687-37.738 0-83.383-66.634-151.22-148.538-151.22-51.305 0-98.564 26.793-125.683 70.582-15.259-8.244-32.273-12.56-49.78-12.56-58.415 0-105.939 48.132-105.939 107.294 0 8.499.977 16.902 2.912 25.08-15.055 8.356-36.744 27.387-36.744 67.626 0 40.037 32.057 72.609 71.46 72.609h80.584v92.466c0 5.458 4.424 9.883 9.883 9.883h182.145c5.458 0 9.883-4.424 9.883-9.883v-92.466h80.584c39.403 0 71.46-32.573 71.46-72.609-.003-17.1-5.976-33.79-16.821-46.995zm-154.99 202.188h-162.38v-149.289h162.379v149.289zm-26.81-169.054h-108.76v-20.837c0-29.985 24.395-54.38 54.38-54.38s54.38 24.395 54.38 54.38zm127.158 66.706h-80.584v-56.824c0-5.458-4.424-9.883-9.883-9.883h-16.926v-20.837c0-40.884-33.261-74.145-74.145-74.145s-74.145 33.261-74.145 74.145v20.837h-16.926c-5.458 0-9.883 4.424-9.883 9.883v56.824h-80.584c-28.505 0-51.695-23.707-51.695-52.845 0-33.409 18.506-47.053 30.705-52.411h46.401c5.458 0 9.883-4.424 9.883-9.883 0-5.458-4.424-9.883-9.883-9.883h-40.894c-1.582-6.689-2.382-13.567-2.382-20.529 0-48.263 38.657-87.528 86.174-87.528 17.098 0 33.617 5.072 47.771 14.669 2.325 1.576 5.212 2.088 7.937 1.409 2.726-.68 5.033-2.487 6.346-4.971 22.539-42.64 65.994-69.129 113.409-69.129 71.005 0 128.773 58.969 128.773 131.454 0 13.428-2.045 23.484-5.665 34.627h-41.646c-5.458 0-9.883 4.424-9.883 9.883 0 5.458 4.424 9.883 9.883 9.883h47.754c23.88 4.821 41.782 27.193 41.782 52.409.001 29.138-23.189 52.845-51.694 52.845z"/><path d="m239.593 375.766h3.522v8.508c0 5.458 4.424 9.883 9.883 9.883s9.883-4.424 9.883-9.883v-8.508h3.521c5.458 0 9.883-4.424 9.883-9.883 0-5.458-4.424-9.883-9.883-9.883h-26.809c-5.458 0-9.883 4.424-9.883 9.883s4.426 9.883 9.883 9.883z"/></g></g></svg>