<svg id="Capa_1" enable-background="new 0 0 512 512" height="512" viewBox="0 0 512 512" width="512" xmlns="http://www.w3.org/2000/svg"><g><g fill="#020288"><path d="m494.982 255.472c-8.429-10.263-19.344-17.961-31.462-22.331 3.622-11.841 5.754-23.374 5.754-38.186 0-84.372-67.425-153.014-150.301-153.014-51.914 0-99.734 27.111-127.174 71.42-15.44-8.342-32.656-12.709-50.371-12.709-59.108 0-107.196 48.703-107.196 108.567 0 8.6.989 17.103 2.947 25.378-15.233 8.455-37.179 27.711-37.179 68.428 0 40.512 32.437 73.471 72.308 73.471h115.075c5.523 0 10-4.477 10-10s-4.477-10-10-10h-115.075c-28.843.001-52.308-23.987-52.308-53.471 0-33.805 18.726-47.611 31.069-53.033h46.952c5.523 0 10-4.477 10-10s-4.477-10-10-10h-41.38c-1.601-6.768-2.41-13.728-2.41-20.773 0-48.836 39.116-88.567 87.196-88.567 17.301 0 34.016 5.132 48.338 14.843 2.353 1.595 5.274 2.114 8.031 1.426 2.758-.688 5.093-2.517 6.421-5.03 22.806-43.146 66.777-69.949 114.755-69.949 71.848 0 130.301 59.669 130.301 133.014 0 13.587-2.069 23.763-5.732 35.038h-42.14c-5.523 0-10 4.477-10 10s4.477 10 10 10h48.321c24.163 4.878 42.278 27.516 42.278 53.031 0 29.484-23.465 53.471-52.308 53.471h-121.075c-5.523 0-10 4.477-10 10s4.477 10 10 10h121.075c39.871 0 72.308-32.959 72.308-73.471 0-17.303-6.044-34.191-17.018-47.553z"/><path d="m311.025 323.458c0 5.523 4.477 10 10 10s10-4.477 10-10v-55.543c0-41.369-33.656-75.025-75.025-75.025s-75.025 33.656-75.025 75.025v55.543c0 5.523 4.477 10 10 10s10-4.477 10-10v-55.543c0-30.341 24.684-55.025 55.025-55.025s55.025 24.684 55.025 55.025z"/></g><g><g><path d="m163.847 298.999h184.305v171.061h-184.305z" fill="#a4fcc4"/></g><path d="m269.563 365.224h-27.127c-5.523 0-10 4.477-10 10s4.477 10 10 10h3.564v8.609c0 5.523 4.477 10 10 10s10-4.477 10-10v-8.609h3.563c5.523 0 10-4.477 10-10s-4.477-10-10-10z" fill="#020288"/></g></g></svg>