<svg id="Capa_1" enable-background="new 0 0 505.996 505.996" height="512" viewBox="0 0 505.996 505.996" width="512" xmlns="http://www.w3.org/2000/svg"><g><g><path d="m252.999 250.128c-54.424 0-98.702 44.277-98.702 98.701s44.278 98.701 98.702 98.701c54.423 0 98.701-44.278 98.701-98.701 0-54.424-44.278-98.701-98.701-98.701zm0 177.636c-43.526 0-78.936-35.41-78.936-78.935s35.411-78.935 78.936-78.935 78.935 35.411 78.935 78.935c0 43.525-35.409 78.935-78.935 78.935z"/><path d="m406.173 199.263h-27.007v-73.71c.001-69.23-56.322-125.553-125.551-125.553h-1.231c-69.23 0-125.554 56.323-125.554 125.553v73.71h-27.006c-5.458 0-9.883 4.425-9.883 9.883v286.967c0 5.458 4.424 9.883 9.883 9.883h306.349c5.457 0 9.883-4.424 9.883-9.883v-286.968c0-5.457-4.424-9.882-9.883-9.882zm-259.577-73.71c0-58.332 47.456-105.788 105.788-105.788h1.231c58.331 0 105.787 47.456 105.787 105.788v73.71h-23.719v-73.71c0-45.253-36.816-82.069-82.068-82.069h-1.231c-45.253 0-82.068 36.816-82.068 82.069v73.71h-23.72zm43.485 73.71v-73.71c0-34.354 27.948-62.304 62.303-62.304h1.231c34.354 0 62.303 27.949 62.303 62.304v73.71zm206.21 286.968h-286.584v-267.203h286.583v267.203z"/><path d="m278.493 324.802c-4.481-3.12-10.64-2.015-13.757 2.466l-15.436 22.176-7.439-6.926c-3.995-3.72-10.248-3.496-13.967.499-3.72 3.995-3.497 10.248.499 13.967l15.776 14.688c1.838 1.712 4.248 2.65 6.734 2.65.35 0 .7-.019 1.051-.056 2.848-.304 5.424-1.829 7.061-4.18l21.944-31.526c3.117-4.48 2.014-10.639-2.466-13.758z"/></g></g></svg>