<svg id="Capa_1" enable-background="new 0 0 512 512" height="512" viewBox="0 0 512 512" width="512" xmlns="http://www.w3.org/2000/svg"><g><g><ellipse cx="256" cy="352.968" fill="#b2f0fb" rx="89.872" ry="89.872" transform="matrix(.707 -.707 .707 .707 -174.605 284.401)"/></g><g><g><path d="m253.879 378.764c-2.515 0-4.954-.949-6.814-2.681l-15.963-14.862c-4.042-3.763-4.269-10.091-.505-14.133 3.763-4.042 10.091-4.269 14.133-.505l7.527 7.008 15.62-22.439c3.154-4.533 9.386-5.651 13.92-2.495 4.533 3.155 5.649 9.388 2.494 13.921l-22.204 31.9c-1.656 2.379-4.263 3.922-7.145 4.23-.355.037-.71.056-1.063.056z" fill="#020288"/></g><path d="m410.992 201.627h-27.327v-74.585c0-70.051-56.991-127.042-127.042-127.042h-1.246c-70.051 0-127.043 56.991-127.043 127.043v74.585h-27.327c-5.523 0-10 4.477-10 10v290.372c0 5.523 4.477 10 10 10h309.984c5.522 0 10-4.477 10-10v-290.373c.001-5.522-4.476-10-9.999-10zm-262.658-74.584c0-59.024 48.019-107.043 107.043-107.043h1.246c59.023 0 107.042 48.019 107.042 107.043v74.585h-24v-74.585c0-45.79-37.253-83.043-83.042-83.043h-1.246c-45.79 0-83.042 37.253-83.042 83.043v74.585h-24.001zm44.001 74.584v-74.585c0-34.762 28.28-63.043 63.042-63.043h1.246c34.762 0 63.042 28.281 63.042 63.043v74.585zm208.657 290.373h-289.984v-270.373h289.984z" fill="#020288"/></g></g></svg>