<svg id="Capa_1" enable-background="new 0 0 505.996 505.996" height="512" viewBox="0 0 505.996 505.996" width="512" xmlns="http://www.w3.org/2000/svg"><g><g><path d="m446.095 59.901c-38.628-38.627-89.986-59.901-144.614-59.901s-105.987 21.274-144.615 59.901c-38.628 38.628-59.901 89.986-59.901 144.614 0 51.321 18.776 99.756 53.078 137.462l-20.325 20.325-18.016-18.015c-3.86-3.858-10.116-3.858-13.976 0l-84.474 84.473c-8.545 8.545-13.252 19.906-13.252 31.992s4.707 23.447 13.252 31.992c8.546 8.545 19.907 13.252 31.992 13.252s23.447-4.707 31.992-13.252l84.474-84.474c3.859-3.859 3.859-10.117 0-13.977l-18.016-18.015 20.325-20.325c37.706 34.302 86.14 53.078 137.461 53.078 54.628 0 105.986-21.274 144.614-59.901 38.629-38.629 59.902-89.986 59.902-144.615s-21.274-105.986-59.901-144.614zm-382.835 418.866c-4.812 4.813-11.211 7.463-18.016 7.463-6.806 0-13.203-2.651-18.015-7.463-4.813-4.812-7.463-11.21-7.463-18.015s2.651-13.203 7.463-18.016l77.485-77.485 36.031 36.031zm368.858-143.613c-34.895 34.896-81.289 54.113-130.638 54.113s-95.744-19.217-130.638-54.113c-34.895-34.895-54.113-81.289-54.113-130.638s19.217-95.743 54.113-130.638c34.895-34.896 81.289-54.113 130.639-54.113 49.348 0 95.743 19.217 130.638 54.113 34.895 34.894 54.112 81.289 54.112 130.637 0 49.35-19.217 95.744-54.113 130.639z"/><path d="m405.578 100.418c-57.401-57.399-150.795-57.398-208.194 0-27.805 27.805-43.118 64.774-43.118 104.097s15.313 76.292 43.118 104.097 64.774 43.118 104.097 43.118 76.291-15.313 104.097-43.118c57.398-57.399 57.398-150.795 0-208.194zm-13.978 194.218c-24.072 24.072-56.078 37.329-90.121 37.329s-66.048-13.257-90.12-37.329c-24.072-24.071-37.329-56.077-37.329-90.12s13.257-66.048 37.329-90.12c24.846-24.846 57.483-37.27 90.12-37.27s65.274 12.424 90.121 37.27c49.693 49.692 49.693 130.548 0 180.24z"/><path d="m405.47 199.004c-1.871-2.784-46.483-68.191-103.99-68.191s-102.12 65.407-103.991 68.191c-2.24 3.333-2.24 7.69 0 11.023 1.871 2.784 46.483 68.192 103.991 68.192 57.507 0 102.119-65.408 103.99-68.192 2.24-3.334 2.24-7.69 0-11.023zm-103.989 59.45c-38.305 0-72.154-39.197-83.527-53.938 11.379-14.747 45.224-53.937 83.527-53.937 38.307 0 72.16 39.204 83.532 53.946-11.346 14.748-45.111 53.929-83.532 53.929z"/><path d="m301.481 164.952c-21.816 0-39.565 17.748-39.565 39.564s17.748 39.565 39.565 39.565c21.815 0 39.564-17.748 39.564-39.565-.001-21.816-17.749-39.564-39.564-39.564zm0 59.363c-10.917 0-19.799-8.882-19.799-19.799 0-10.916 8.882-19.798 19.799-19.798 10.916 0 19.798 8.882 19.798 19.798 0 10.917-8.883 19.799-19.798 19.799z"/></g></g></svg>