<svg id="Capa_1" enable-background="new 0 0 512 512" height="512" viewBox="0 0 512 512" width="512" xmlns="http://www.w3.org/2000/svg"><g><g><path d="m186.486 119.37h139.027v404h-139.027z" fill="#e2c4ff" transform="matrix(0 1 -1 0 577.37 65.37)"/></g><g fill="#020288"><path d="m502 197.856h-196.468v-40.173c0-4.045-2.436-7.691-6.173-9.239-3.737-1.546-8.038-.692-10.898 2.168l-18.212 18.213c-3.905 3.905-3.905 10.237.001 14.143 3.905 3.904 10.237 3.904 14.142 0l1.141-1.142v16.03h-275.533c-5.523 0-10 4.478-10 10v227.026c0 5.522 4.477 10 10 10h492c5.523 0 10-4.478 10-10v-227.026c0-5.522-4.477-10-10-10zm-10 227.027h-472v-207.027h265.532v4.253c0 16.284-13.248 29.532-29.532 29.532-10.789 0-20.72-5.884-25.915-15.356-2.657-4.843-8.736-6.615-13.577-3.958-4.842 2.656-6.614 8.735-3.958 13.577 8.709 15.875 25.358 25.737 43.451 25.737 27.312 0 49.532-22.22 49.532-49.532v-4.253h186.467z"/><path d="m299.332 307.228-6.959-6.958c-3.905-3.904-10.237-3.904-14.142 0-3.905 3.905-3.905 10.237 0 14.143l6.958 6.957-6.958 6.957c-3.905 3.905-3.906 10.237 0 14.143 1.953 1.952 4.512 2.929 7.071 2.929s5.119-.977 7.071-2.929l6.959-6.958 6.958 6.958c1.953 1.952 4.512 2.929 7.071 2.929s5.119-.977 7.071-2.929c3.905-3.905 3.905-10.237 0-14.143l-6.958-6.957 6.958-6.957c3.905-3.905 3.906-10.237 0-14.143-3.906-3.903-10.237-3.904-14.142 0z"/><path d="m233.769 300.27c-3.905-3.903-10.237-3.904-14.142 0l-6.958 6.958-6.958-6.958c-3.905-3.904-10.237-3.904-14.142 0-3.905 3.905-3.905 10.237.001 14.143l6.958 6.957-6.958 6.957c-3.905 3.905-3.906 10.237-.001 14.143 1.953 1.952 4.512 2.929 7.071 2.929s5.119-.977 7.071-2.929l6.958-6.958 6.958 6.958c1.953 1.952 4.512 2.929 7.071 2.929s5.119-.977 7.071-2.929c3.905-3.905 3.905-10.237 0-14.143l-6.958-6.957 6.958-6.957c3.905-3.906 3.905-10.238 0-14.143z"/><path d="m147.106 300.27c-3.905-3.903-10.237-3.904-14.142 0l-6.959 6.958-6.958-6.958c-3.905-3.904-10.237-3.904-14.142 0-3.905 3.905-3.905 10.237.001 14.143l6.958 6.957-6.958 6.957c-3.905 3.905-3.906 10.237-.001 14.143 1.953 1.952 4.512 2.929 7.071 2.929s5.119-.977 7.071-2.929l6.958-6.958 6.959 6.958c1.953 1.952 4.512 2.929 7.071 2.929s5.119-.977 7.071-2.929c3.905-3.905 3.905-10.237 0-14.143l-6.958-6.957 6.958-6.957c3.905-3.906 3.906-10.238 0-14.143z"/><path d="m364.894 342.47c1.953 1.952 4.512 2.929 7.071 2.929s5.119-.977 7.071-2.929l6.958-6.958 6.958 6.958c1.953 1.952 4.512 2.929 7.071 2.929s5.119-.977 7.071-2.929c3.905-3.905 3.905-10.237 0-14.143l-6.958-6.957 6.958-6.957c3.905-3.905 3.906-10.237 0-14.143-3.906-3.903-10.237-3.904-14.142 0l-6.958 6.958-6.958-6.958c-3.905-3.904-10.237-3.904-14.142 0-3.905 3.905-3.905 10.237 0 14.143l6.958 6.957-6.958 6.957c-3.905 3.905-3.906 10.238 0 14.143z"/><path d="m206.468 154.791v19.815c0 5.523 4.477 10 10 10s10-4.477 10-10v-19.815c13.883-4.28 24-17.23 24-32.499s-10.117-28.219-24-32.499v-12.676c0-5.522-4.477-10-10-10s-10 4.478-10 10v12.675c-13.883 4.28-24 17.23-24 32.499s10.118 28.22 24 32.5zm10-46.499c7.72 0 14 6.28 14 14s-6.28 14-14 14-14-6.28-14-14 6.281-14 14-14z"/></g></g></svg>