<svg id="Capa_1" enable-background="new 0 0 512 512" height="512" viewBox="0 0 512 512" width="512" xmlns="http://www.w3.org/2000/svg"><g><g fill="#020288"><path d="m476.566 44.91h-441.132c-19.539 0-35.434 16.01-35.434 35.688v350.805c0 19.678 15.895 35.688 35.434 35.688h441.132c19.538 0 35.434-16.01 35.434-35.688v-350.805c0-19.678-15.896-35.688-35.434-35.688zm-456.566 35.688c0-8.65 6.924-15.688 15.434-15.688h441.132c8.51 0 15.434 7.037 15.434 15.688v39.766h-472zm472 350.804c0 8.65-6.924 15.688-15.434 15.688h-441.132c-8.51 0-15.434-7.037-15.434-15.688v-291.039h472z"/><path d="m82.894 82.637h-13.788c-5.523 0-10 4.478-10 10s4.477 10 10 10h13.787c5.523 0 10-4.478 10-10 .001-5.523-4.477-10-9.999-10z"/><path d="m139.957 82.637h-13.787c-5.523 0-10 4.478-10 10s4.477 10 10 10h13.787c5.523 0 10-4.478 10-10 0-5.523-4.477-10-10-10z"/><path d="m197.021 82.637h-13.788c-5.523 0-10 4.478-10 10s4.477 10 10 10h13.788c5.523 0 10-4.478 10-10 0-5.523-4.477-10-10-10z"/><path d="m442.894 82.637h-48.937c-5.522 0-10 4.478-10 10s4.478 10 10 10h48.937c5.522 0 10-4.478 10-10 0-5.523-4.478-10-10-10z"/><path d="m276.215 264.803c1.953 1.952 4.512 2.929 7.071 2.929 2.56 0 5.118-.977 7.071-2.929l5.993-5.993 5.993 5.993c1.953 1.952 4.512 2.929 7.071 2.929 2.56 0 5.118-.977 7.071-2.929 3.905-3.905 3.905-10.237 0-14.143l-5.993-5.993 5.993-5.993c3.905-3.905 3.905-10.237 0-14.143-3.906-3.904-10.236-3.904-14.143 0l-5.993 5.993-5.993-5.993c-3.906-3.904-10.236-3.904-14.143 0-3.905 3.905-3.905 10.237 0 14.143l5.993 5.993-5.993 5.993c-3.903 3.905-3.903 10.237.002 14.143z"/><path d="m195.515 264.803c1.953 1.952 4.512 2.929 7.071 2.929s5.119-.977 7.071-2.929l5.993-5.993 5.993 5.993c1.953 1.952 4.512 2.929 7.071 2.929s5.119-.977 7.071-2.929c3.905-3.905 3.905-10.237 0-14.143l-5.993-5.993 5.993-5.993c3.905-3.905 3.905-10.237 0-14.143-3.905-3.904-10.237-3.904-14.143 0l-5.993 5.993-5.993-5.993c-3.905-3.904-10.237-3.904-14.143 0-3.905 3.905-3.905 10.237 0 14.143l5.993 5.993-5.993 5.993c-3.903 3.905-3.903 10.237.002 14.143z"/><path d="m114.814 264.803c1.953 1.952 4.512 2.929 7.071 2.929s5.119-.977 7.071-2.929l5.993-5.993 5.993 5.993c1.953 1.952 4.512 2.929 7.071 2.929s5.119-.977 7.071-2.929c3.905-3.905 3.905-10.237 0-14.143l-5.993-5.993 5.993-5.993c3.905-3.905 3.905-10.237 0-14.143-3.905-3.904-10.237-3.904-14.143 0l-5.993 5.993-5.993-5.993c-3.905-3.904-10.237-3.904-14.142 0-3.905 3.905-3.905 10.237 0 14.143l5.993 5.993-5.993 5.993c-3.904 3.905-3.904 10.237.001 14.143z"/><path d="m356.915 264.803c1.953 1.952 4.512 2.929 7.071 2.929 2.56 0 5.118-.977 7.071-2.929l5.993-5.993 5.993 5.993c1.953 1.952 4.512 2.929 7.071 2.929 2.56 0 5.118-.977 7.071-2.929 3.905-3.905 3.905-10.237 0-14.143l-5.993-5.993 5.993-5.993c3.905-3.905 3.905-10.237 0-14.143-3.906-3.904-10.236-3.904-14.142 0l-5.993 5.993-5.993-5.993c-3.906-3.904-10.236-3.904-14.143 0-3.905 3.905-3.905 10.237 0 14.143l5.993 5.993-5.993 5.993c-3.904 3.905-3.904 10.237.001 14.143z"/></g><g><path d="m376.91 392.117h-241.82c-22.659 0-41.028-18.369-41.028-41.028 0-22.659 18.369-41.028 41.028-41.028h241.82c22.659 0 41.028 18.369 41.028 41.028 0 22.659-18.369 41.028-41.028 41.028z" fill="#ffbdbc"/></g></g></svg>