<svg id="Capa_1" enable-background="new 0 0 505.996 505.996" height="512" viewBox="0 0 505.996 505.996" width="512" xmlns="http://www.w3.org/2000/svg"><g><g><path d="m360.615 338.454c1.93 1.929 4.459 2.895 6.988 2.895s5.059-.966 6.988-2.895l6.876-6.876 6.876 6.876c1.93 1.929 4.459 2.895 6.988 2.895s5.059-.966 6.988-2.895c3.859-3.859 3.859-10.117-.001-13.977l-6.876-6.876 6.876-6.876c3.859-3.859 3.86-10.117.001-13.977-3.86-3.857-10.117-3.858-13.976 0l-6.876 6.876-6.876-6.876c-3.859-3.858-10.117-3.858-13.976 0-3.859 3.859-3.859 10.117 0 13.977l6.876 6.876-6.876 6.876c-3.859 3.86-3.86 10.117 0 13.977z"/><path d="m496.113 195.536h-194.164v-39.702c0-3.998-2.408-7.601-6.101-9.131-3.693-1.528-7.944-.684-10.77 2.143l-17.998 17.999c-3.859 3.859-3.859 10.117.001 13.977 3.859 3.858 10.117 3.858 13.976 0l1.128-1.129v15.842h-272.302c-5.458 0-9.883 4.425-9.883 9.883v224.364c0 5.457 4.425 9.883 9.883 9.883h486.231c5.458 0 9.883-4.425 9.883-9.883v-224.363c-.001-5.457-4.425-9.883-9.884-9.883zm-53.367 63.249v117.631h-379.496v-117.631h160.536c8.306 6.175 18.503 9.671 29.212 9.671 10.925 0 21.027-3.598 29.18-9.671zm43.485 161.116h-466.466v-204.599h262.418v4.203c0 16.093-13.093 29.186-29.186 29.186-10.662 0-20.477-5.815-25.611-15.176-2.626-4.786-8.634-6.537-13.418-3.912-3.509 1.925-5.387 5.67-5.103 9.416h-155.498c-5.458 0-9.883 4.425-9.883 9.883v137.397c0 5.457 4.424 9.883 9.883 9.883h399.262c5.458 0 9.883-4.425 9.883-9.883v-137.397c0-5.457-4.424-9.883-9.883-9.883h-154.74c2.61-5.982 4.059-12.582 4.059-19.514v-4.203h184.282v204.599z"/><path d="m274.968 296.749c-3.859 3.859-3.859 10.117 0 13.977l6.876 6.876-6.876 6.876c-3.859 3.859-3.86 10.117 0 13.977 1.93 1.929 4.459 2.895 6.988 2.895s5.059-.966 6.988-2.895l6.877-6.876 6.876 6.876c1.93 1.929 4.459 2.895 6.988 2.895s5.059-.966 6.988-2.895c3.859-3.859 3.859-10.117 0-13.977l-6.876-6.876 6.876-6.876c3.859-3.859 3.86-10.117 0-13.977-3.86-3.857-10.117-3.858-13.976 0l-6.876 6.876-6.877-6.876c-3.859-3.859-10.117-3.859-13.976 0z"/><path d="m231.028 296.749c-3.859-3.857-10.117-3.858-13.976 0l-6.876 6.876-6.876-6.876c-3.859-3.858-10.117-3.858-13.976 0-3.859 3.859-3.859 10.117 0 13.977l6.876 6.876-6.876 6.876c-3.859 3.859-3.86 10.117 0 13.977 1.93 1.929 4.459 2.895 6.988 2.895s5.059-.966 6.988-2.895l6.876-6.876 6.876 6.876c1.93 1.929 4.459 2.895 6.988 2.895s5.059-.966 6.988-2.895c3.859-3.859 3.859-10.117 0-13.977l-6.876-6.876 6.876-6.876c3.859-3.86 3.859-10.117 0-13.977z"/><path d="m145.381 296.749c-3.859-3.857-10.117-3.858-13.976 0l-6.876 6.876-6.876-6.876c-3.859-3.858-10.117-3.858-13.976 0-3.859 3.859-3.859 10.117 0 13.977l6.876 6.876-6.876 6.876c-3.859 3.859-3.86 10.117 0 13.977 1.93 1.929 4.459 2.895 6.988 2.895s5.059-.966 6.988-2.895l6.876-6.876 6.876 6.876c1.93 1.929 4.459 2.895 6.988 2.895s5.059-.966 6.988-2.895c3.859-3.859 3.859-10.117 0-13.977l-6.876-6.876 6.876-6.876c3.859-3.86 3.86-10.117 0-13.977z"/><path d="m204.047 152.976v19.583c0 5.457 4.424 9.883 9.883 9.883 5.458 0 9.883-4.425 9.883-9.883v-19.583c13.72-4.23 23.719-17.028 23.719-32.118s-9.998-27.888-23.719-32.118v-12.527c0-5.457-4.424-9.883-9.883-9.883-5.458 0-9.883 4.425-9.883 9.883v12.527c-13.72 4.23-23.719 17.028-23.719 32.118s10 27.889 23.719 32.118zm9.883-45.953c7.629 0 13.836 6.206 13.836 13.836s-6.206 13.836-13.836 13.836-13.836-6.206-13.836-13.836 6.207-13.836 13.836-13.836z"/></g></g></svg>