<svg id="Capa_1" enable-background="new 0 0 505.996 505.996" height="512" viewBox="0 0 505.996 505.996" width="512" xmlns="http://www.w3.org/2000/svg"><g><g><path d="m470.978 44.383h-435.96c-19.309 0-35.018 15.822-35.018 35.269v346.691c0 19.447 15.709 35.27 35.018 35.27h435.959c19.309 0 35.018-15.822 35.018-35.27v-346.691c.001-19.447-15.709-35.269-35.017-35.269zm-451.213 35.269c0-8.549 6.843-15.504 15.253-15.504h435.959c8.41 0 15.253 6.954 15.253 15.504v39.3h-466.465zm466.466 346.691c0 8.549-6.843 15.504-15.253 15.504h-435.96c-8.41 0-15.253-6.954-15.253-15.504v-287.626h466.465v287.626z"/><path d="m81.922 81.667h-13.626c-5.458 0-9.883 4.425-9.883 9.883 0 5.457 4.425 9.883 9.883 9.883h13.625c5.458 0 9.883-4.425 9.883-9.883.001-5.458-4.425-9.883-9.882-9.883z"/><path d="m138.316 81.667h-13.626c-5.458 0-9.883 4.425-9.883 9.883 0 5.457 4.424 9.883 9.883 9.883h13.625c5.458 0 9.883-4.425 9.883-9.883.001-5.458-4.424-9.883-9.882-9.883z"/><path d="m194.711 81.667h-13.626c-5.458 0-9.883 4.425-9.883 9.883 0 5.457 4.425 9.883 9.883 9.883h13.626c5.458 0 9.883-4.425 9.883-9.883-.001-5.458-4.425-9.883-9.883-9.883z"/><path d="m437.7 81.667h-48.363c-5.457 0-9.883 4.425-9.883 9.883 0 5.457 4.425 9.883 9.883 9.883h48.363c5.457 0 9.883-4.425 9.883-9.883s-4.425-9.883-9.883-9.883z"/><path d="m272.976 261.697c1.93 1.929 4.459 2.895 6.988 2.895 2.53 0 5.058-.966 6.988-2.895l5.923-5.923 5.923 5.923c1.93 1.929 4.459 2.895 6.988 2.895 2.53 0 5.058-.966 6.988-2.895 3.859-3.859 3.859-10.117 0-13.977l-5.923-5.923 5.923-5.923c3.859-3.859 3.859-10.117 0-13.977-3.86-3.858-10.116-3.858-13.977 0l-5.923 5.923-5.923-5.923c-3.86-3.858-10.116-3.858-13.977 0-3.859 3.859-3.859 10.117 0 13.977l5.923 5.923-5.923 5.923c-3.857 3.859-3.857 10.117.002 13.977z"/><path d="m193.222 261.697c1.93 1.929 4.459 2.895 6.988 2.895s5.059-.966 6.988-2.895l5.923-5.923 5.923 5.923c1.93 1.929 4.459 2.895 6.988 2.895s5.059-.966 6.988-2.895c3.859-3.859 3.859-10.117 0-13.977l-5.923-5.923 5.923-5.923c3.859-3.859 3.859-10.117 0-13.977-3.859-3.858-10.117-3.858-13.977 0l-5.923 5.923-5.923-5.923c-3.859-3.858-10.117-3.858-13.977 0-3.859 3.859-3.859 10.117 0 13.977l5.923 5.923-5.923 5.923c-3.857 3.859-3.857 10.117.002 13.977z"/><path d="m113.468 261.697c1.93 1.929 4.459 2.895 6.988 2.895s5.059-.966 6.988-2.895l5.923-5.923 5.923 5.923c1.93 1.929 4.459 2.895 6.988 2.895s5.059-.966 6.988-2.895c3.859-3.859 3.859-10.117 0-13.977l-5.923-5.923 5.923-5.923c3.859-3.859 3.859-10.117 0-13.977-3.859-3.858-10.117-3.858-13.977 0l-5.923 5.923-5.923-5.923c-3.859-3.858-10.117-3.858-13.976 0-3.859 3.859-3.859 10.117 0 13.977l5.923 5.923-5.923 5.923c-3.859 3.859-3.859 10.117.001 13.977z"/><path d="m352.73 261.697c1.93 1.929 4.459 2.895 6.988 2.895 2.53 0 5.058-.966 6.988-2.895l5.923-5.923 5.923 5.923c1.93 1.929 4.459 2.895 6.988 2.895 2.53 0 5.058-.966 6.988-2.895 3.859-3.859 3.859-10.117 0-13.977l-5.923-5.923 5.923-5.923c3.859-3.859 3.859-10.117 0-13.977-3.86-3.858-10.116-3.858-13.976 0l-5.923 5.923-5.923-5.923c-3.86-3.858-10.116-3.858-13.977 0-3.859 3.859-3.859 10.117 0 13.977l5.923 5.923-5.923 5.923c-3.859 3.859-3.859 10.117.001 13.977z"/><path d="m133.506 397.401h238.984c27.807 0 50.429-22.624 50.429-50.43 0-27.807-22.623-50.429-50.429-50.429h-238.984c-27.807 0-50.43 22.623-50.43 50.429 0 27.808 22.623 50.43 50.43 50.43zm0-81.094h238.984c16.907 0 30.663 13.756 30.663 30.663 0 16.908-13.756 30.664-30.663 30.664h-238.984c-16.908 0-30.664-13.756-30.664-30.664 0-16.907 13.755-30.663 30.664-30.663z"/></g></g></svg>